# xmcd
#
# Track frame offsets:
#	150
#	121195
#	146086
#	160979
#	189826
#	219392
#	250846
#	265366
#
# Disc length: 3823 seconds
#
# Revision: 1
# Processed by: cddbd v1.5.2PL0 Copyright (c) Steve Scherf et al.
# Submitted via: audiograbber 1.83.01
#
DISCID=6f0eed08
DTITLE=Grateful Dead - 72-09-16A Boston Music Hall, Boston MA
DYEAR=1900
DGENRE=
TTITLE0=Dark Star
TTITLE1=Brokedown Palace
TTITLE2=Promised Land
TTITLE3=Ramble On Rose
TTITLE4=Not Fade Away
TTITLE5=Going Down The Road Feeling Bad
TTITLE6=Not Fade Away
TTITLE7=One More Saturday Night
EXTD=
EXTT0=
EXTT1=
EXTT2=
EXTT3=
EXTT4=
EXTT5=
EXTT6=
EXTT7=
PLAYORDER=
